<?xml version="1.0" encoding="utf-8"?>
<!-- Generator: Adobe Illustrator 25.1.0, SVG Export Plug-In . SVG Version: 6.00 Build 0)  -->
<svg version="1.1" id="Layer_1" xmlns="http://www.w3.org/2000/svg" xmlns:xlink="http://www.w3.org/1999/xlink" x="0px" y="0px"
	 viewBox="0 0 101.8 101.5" style="enable-background:new 0 0 101.8 101.5;" xml:space="preserve" width="101.8" height="101.5">
<style type="text/css">
	.st0{fill:#D71920;}
</style>
<g>
	<path class="st0" d="M50.9,0C22.8,0,0,22.8,0,50.7s22.8,50.7,50.9,50.7s50.9-22.8,50.9-50.7S78.9,0,50.9,0 M50.9,97.6
		c-25.9,0-47-21-47-46.8S25,3.9,50.9,3.9s47,21,47,46.8S76.8,97.6,50.9,97.6"/>
	<path class="st0" d="M74.9,29.5L45,63.7L26.8,49.2c-0.8-0.7-2.1-0.5-2.7,0.3c-0.7,0.9-0.5,2.1,0.3,2.8L44,67.9
		c0.4,0.3,0.8,0.4,1.2,0.4c0.5,0,1.1-0.2,1.5-0.7l31.1-35.5c0.7-0.8,0.6-2.1-0.2-2.8C76.8,28.6,75.6,28.7,74.9,29.5"/>
</g>
</svg>
