<?xml version="1.0" encoding="utf-8"?>
<!-- Generator: Adobe Illustrator 25.1.0, SVG Export Plug-In . SVG Version: 6.00 Build 0)  -->
<svg version="1.1" id="Layer_1" xmlns="http://www.w3.org/2000/svg" xmlns:xlink="http://www.w3.org/1999/xlink" x="0px" y="0px"
	 viewBox="0 0 90.8 112" style="enable-background:new 0 0 90.8 112;" xml:space="preserve" width="90.8" height="112">
<style type="text/css">
	.st0{fill:#D71920;}
	.st1{fill:#D31927;}
</style>
<g>
	<path class="st0" d="M78.5,41.8V30.1C78.5,13.5,63.7,0,45.4,0s-33,13.6-33,30.1v11.6C5.4,43,0,49.1,0,56.5V97c0,8.3,6.7,15,14.9,15
		h61c8.2,0,14.9-6.7,14.9-15V56.5C90.9,49.1,85.6,43,78.5,41.8z M16.5,30.1c0-14.3,13-25.9,28.9-25.9s28.9,11.6,28.9,25.9v11.4H16.5
		V30.1z M86.8,97c0,6-4.8,10.8-10.8,10.8H14.9c-6,0-10.8-4.9-10.8-10.8V56.5c0-6,4.8-10.8,10.8-10.8h61c5.9,0,10.8,4.9,10.8,10.8
		L86.8,97L86.8,97z"/>
	<path class="st1" d="M45.2,93.5c-6.9,0-12.3-8-12.3-18.3s5.4-18.3,12.3-18.3s12.3,8,12.3,18.3S52.1,93.5,45.2,93.5z M45.2,59.9
		c-5,0-9.3,7-9.3,15.3s4.3,15.3,9.3,15.3c5,0,9.3-7,9.3-15.3S50.2,59.9,45.2,59.9z"/>
</g>
</svg>
