<?xml version="1.0" encoding="utf-8"?>
<!-- Generator: Adobe Illustrator 25.1.0, SVG Export Plug-In . SVG Version: 6.00 Build 0)  -->
<svg version="1.1" id="Layer_1" xmlns="http://www.w3.org/2000/svg" xmlns:xlink="http://www.w3.org/1999/xlink" x="0px" y="0px"
	 viewBox="0 0 124.1 123.7" style="enable-background:new 0 0 124.1 123.7;" xml:space="preserve" width="124.1" height="123.7">
<style type="text/css">
	.st0{fill:#D71920;}
</style>
<g>
	<path class="st0" d="M45.6,26.6c0,14.7,12,26.6,26.7,26.6c14.7,0,26.7-11.9,26.7-26.6S87,0,72.3,0C57.5,0,45.6,11.9,45.6,26.6
		 M94.1,26.6c0,12-9.8,21.8-21.8,21.8s-21.8-9.8-21.8-21.8S60.2,4.8,72.3,4.8S94.1,14.6,94.1,26.6"/>
	<path class="st0" d="M27.9,123c0.9,0.9,2.5,1,3.4,0l11.8-11.5c2-2,2.6-4.9,1.7-7.5l2.5-2.4c1.4-1.3,3.2-2,5.1-2h32.2
		c5.7,0,11.1-2.2,15.2-6.2c0.2-0.2-1.3,1.5,22-26.2c3.4-4.1,2.9-10.2-1.1-13.6c-4.1-3.4-10.2-2.9-13.6,1.1L92.8,69.3
		c-1.8-2.2-4.6-3.6-7.5-3.6h-27c-3.8-1.6-7.9-2.4-12.1-2.4c-11.7,0-21.9,5.4-27.3,15.4c-2.3-0.4-4.7,0.3-6.5,2L0.7,92.3
		c-0.9,0.9-0.9,2.5,0,3.4L27.9,123z M46.1,68.1c3.7,0,7.3,0.7,10.7,2.2c0.3,0.1,0.6,0.2,1,0.2h27.5c2.6,0,4.8,2.1,4.8,4.8
		c0,2.7-2.2,4.8-4.8,4.8H65.5c-1.3,0-2.4,1.1-2.4,2.4s1.1,2.4,2.4,2.4h19.8c5.3,0,9.7-4.3,9.7-9.7c0-0.4,0-0.8-0.1-1.3
		c13.8-14.2,15.8-16.2,15.9-16.3c1.7-2,4.8-2.3,6.8-0.6c2,1.7,2.3,4.8,0.6,6.8L96.4,90c-3.2,3-7.3,4.7-11.8,4.7H52.4
		c-3.2,0-6.2,1.2-8.4,3.4l-2.1,2l-19-18.9C27.4,72.9,35.7,68.1,46.1,68.1z M15.7,84.2c0.8-0.8,2-0.9,3-0.3c0.4,0.3-0.8-0.8,21,20.8
		c1,1,0.9,2.5,0,3.4l-10,9.8L5.8,94L15.7,84.2z"/>
	<path class="st0" d="M69.7,12.3v2.8c-2.8,1-4.7,3.7-4.7,6.8c0,4,3.2,7.2,7.1,7.2c1.3,0,2.4,1.1,2.4,2.4c0,1.3-1.1,2.4-2.4,2.4
		c-1,0-2.1-0.6-3.1-1.8c-0.8-1-2.3-1.1-3.3-0.3c-1,0.9-1.1,2.4-0.3,3.4c1.3,1.5,2.8,2.6,4.3,3.1v2.8c0,1.3,1.1,2.4,2.4,2.4
		c1.3,0,2.4-1.1,2.4-2.4v-2.8c2.8-1,4.7-3.7,4.7-6.8c0-4-3.2-7.2-7.1-7.2c-1.3,0-2.4-1.1-2.4-2.4c0-1.3,1.1-2.4,2.4-2.4
		c0.8,0,1.7,0.4,2.6,1.2c0.9,0.9,2.4,0.9,3.3-0.1c0.9-1,0.9-2.5-0.1-3.4c-1.2-1.2-2.4-1.8-3.5-2.2v-2.8c0-1.3-1.1-2.4-2.4-2.4
		C70.8,9.9,69.7,11,69.7,12.3"/>
</g>
</svg>
