<?xml version="1.0" encoding="utf-8"?>
<!-- Generator: Adobe Illustrator 25.1.0, SVG Export Plug-In . SVG Version: 6.00 Build 0)  -->
<svg version="1.1" id="Layer_1" xmlns="http://www.w3.org/2000/svg" xmlns:xlink="http://www.w3.org/1999/xlink" x="0px" y="0px"
	 viewBox="0 0 107 111.7" style="enable-background:new 0 0 107 111.7;" xml:space="preserve" width="107" height="111.7">
<style type="text/css">
	.st0{fill:#D71920;}
</style>
<g>
	<path class="st0" d="M107,67.4c0-4.8-2.7-7.1-5.3-8.2c2-1.8,3.3-4.4,3.3-7.2c0-5.3-4.4-9.6-9.7-9.6H67.4l1.4-6.6
		c1.9-8.8,0.7-18.7,0.2-21.5C68,7.5,62,0,55.5,0H55c-3.1,0-8.3,1.8-8.3,13.5c0,15.4-3.9,22.5-7.2,25.7c-3.2,3.1-6.3,3.1-6.5,3.2h-2
		v-3.9H0v73.2h31.1v-3.8h54.5c5.4,0,9.7-4.3,9.7-9.6c0-2.2-0.8-4.3-2.1-5.9c4.5-0.8,7.9-4.8,7.9-9.5c0-2.2-0.8-4.3-2.1-5.9
		C103.6,76,107,72.1,107,67.4z M3.9,107.8h23.3V42.4H3.9V107.8z M97.3,73.1H75.9c-1.1,0-1.9,0.9-1.9,1.9s0.9,1.9,1.9,1.9h15.6
		c3.2,0,5.8,2.6,5.8,5.8c0,3.2-2.6,5.8-5.8,5.8H72c-1.1,0-1.9,0.8-1.9,1.9c0,1.1,0.9,1.9,1.9,1.9h13.6c3.2,0,5.8,2.6,5.8,5.8
		c0,3.2-2.6,5.8-5.8,5.8H31.1V46.2H33c0.2,0,4.7,0.1,9.1-4.1c5.6-5.4,8.5-15,8.5-28.6c0-3.6,0.6-9.6,4.4-9.6h0.5c4.3,0,9,6,9.7,11
		c0.4,2.7,1.6,12-0.2,20.2l-2.4,11.2h32.8c3.2,0,5.8,2.6,5.8,5.8c0,3.2-2.6,5.8-5.8,5.8H75.9c-1.1,0-1.9,0.9-1.9,1.9
		c0,1.1,0.9,1.9,1.9,1.9h13.6c1.7,0,5.5,0.1,7.5,0.4c5.1,0.7,6.1,2.7,6.1,5.4C103.1,70.6,100.5,73.1,97.3,73.1z"/>
</g>
</svg>
